<svg id="visual" viewBox="0 0 3840 200" width="3840" height="200" xmlns="http://www.w3.org/2000/svg" xmlns:xlink="http://www.w3.org/1999/xlink" version="1.1"><rect x="0" y="0" width="3840" height="200" fill="#ffffff"></rect><path d="M0 111L40 103.7C80 96.3 160 81.7 240 84.7C320 87.7 400 108.3 480 117.5C560 126.7 640 124.3 720 124.2C800 124 880 126 960 121.2C1040 116.3 1120 104.7 1200 103.8C1280 103 1360 113 1440 114.2C1520 115.3 1600 107.7 1680 107.8C1760 108 1840 116 1920 121.2C2000 126.3 2080 128.7 2160 120.3C2240 112 2320 93 2400 85.2C2480 77.3 2560 80.7 2640 79.5C2720 78.3 2800 72.7 2880 78.2C2960 83.7 3040 100.3 3120 108.2C3200 116 3280 115 3360 110.5C3440 106 3520 98 3600 99.7C3680 101.3 3760 112.7 3800 118.3L3840 124L3840 201L3800 201C3760 201 3680 201 3600 201C3520 201 3440 201 3360 201C3280 201 3200 201 3120 201C3040 201 2960 201 2880 201C2800 201 2720 201 2640 201C2560 201 2480 201 2400 201C2320 201 2240 201 2160 201C2080 201 2000 201 1920 201C1840 201 1760 201 1680 201C1600 201 1520 201 1440 201C1360 201 1280 201 1200 201C1120 201 1040 201 960 201C880 201 800 201 720 201C640 201 560 201 480 201C400 201 320 201 240 201C160 201 80 201 40 201L0 201Z" fill="#8bd0cc"></path><path d="M0 133L40 135.5C80 138 160 143 240 143.2C320 143.3 400 138.7 480 134C560 129.3 640 124.7 720 120.5C800 116.3 880 112.7 960 113.3C1040 114 1120 119 1200 122.8C1280 126.7 1360 129.3 1440 124.7C1520 120 1600 108 1680 104.8C1760 101.7 1840 107.3 1920 115.3C2000 123.3 2080 133.7 2160 138.3C2240 143 2320 142 2400 134C2480 126 2560 111 2640 111.2C2720 111.3 2800 126.7 2880 128.2C2960 129.7 3040 117.3 3120 110.3C3200 103.3 3280 101.7 3360 108C3440 114.3 3520 128.7 3600 132.2C3680 135.7 3760 128.3 3800 124.7L3840 121L3840 201L3800 201C3760 201 3680 201 3600 201C3520 201 3440 201 3360 201C3280 201 3200 201 3120 201C3040 201 2960 201 2880 201C2800 201 2720 201 2640 201C2560 201 2480 201 2400 201C2320 201 2240 201 2160 201C2080 201 2000 201 1920 201C1840 201 1760 201 1680 201C1600 201 1520 201 1440 201C1360 201 1280 201 1200 201C1120 201 1040 201 960 201C880 201 800 201 720 201C640 201 560 201 480 201C400 201 320 201 240 201C160 201 80 201 40 201L0 201Z" fill="#4cbbb8"></path><path d="M0 134L40 137C80 140 160 146 240 151.7C320 157.3 400 162.7 480 161.7C560 160.7 640 153.3 720 151.5C800 149.7 880 153.3 960 151.5C1040 149.7 1120 142.3 1200 143.5C1280 144.7 1360 154.3 1440 155C1520 155.7 1600 147.3 1680 143.2C1760 139 1840 139 1920 138.3C2000 137.7 2080 136.3 2160 140.5C2240 144.7 2320 154.3 2400 157.2C2480 160 2560 156 2640 154C2720 152 2800 152 2880 153.3C2960 154.7 3040 157.3 3120 156.2C3200 155 3280 150 3360 148.3C3440 146.7 3520 148.3 3600 149.2C3680 150 3760 150 3800 150L3840 150L3840 201L3800 201C3760 201 3680 201 3600 201C3520 201 3440 201 3360 201C3280 201 3200 201 3120 201C3040 201 2960 201 2880 201C2800 201 2720 201 2640 201C2560 201 2480 201 2400 201C2320 201 2240 201 2160 201C2080 201 2000 201 1920 201C1840 201 1760 201 1680 201C1600 201 1520 201 1440 201C1360 201 1280 201 1200 201C1120 201 1040 201 960 201C880 201 800 201 720 201C640 201 560 201 480 201C400 201 320 201 240 201C160 201 80 201 40 201L0 201Z" fill="#388987"></path></svg>